<?xml version="1.0" encoding="UTF-8" standalone="no"?>
<!-- Created with Inkscape (http://www.inkscape.org/) -->

<svg
   xmlns:dc="http://purl.org/dc/elements/1.1/"
   xmlns:cc="http://creativecommons.org/ns#"
   xmlns:rdf="http://www.w3.org/1999/02/22-rdf-syntax-ns#"
   xmlns:svg="http://www.w3.org/2000/svg"
   xmlns="http://www.w3.org/2000/svg"
   xmlns:sodipodi="http://sodipodi.sourceforge.net/DTD/sodipodi-0.dtd"
   xmlns:inkscape="http://www.inkscape.org/namespaces/inkscape"
   sodipodi:docname="gaussian_curve_with_overlap.svg"
   inkscape:version="0.92.5 (2060ec1f9f, 2020-04-08)"
   id="svg8"
   version="1.1"
   viewBox="0 0 297 210"
   height="210mm"
   width="297mm">
  <defs
     id="defs2" />
  <sodipodi:namedview
     id="base"
     pagecolor="#ffffff"
     bordercolor="#666666"
     borderopacity="1.0"
     inkscape:pageopacity="0.0"
     inkscape:pageshadow="2"
     inkscape:zoom="0.35"
     inkscape:cx="-620"
     inkscape:cy="537.14286"
     inkscape:document-units="mm"
     inkscape:current-layer="layer2"
     showgrid="false"
     inkscape:window-width="2560"
     inkscape:window-height="1376"
     inkscape:window-x="0"
     inkscape:window-y="27"
     inkscape:window-maximized="1" />
  <metadata
     id="metadata5">
    <rdf:RDF>
      <cc:Work
         rdf:about="">
        <dc:format>image/svg+xml</dc:format>
        <dc:type
           rdf:resource="http://purl.org/dc/dcmitype/StillImage" />
        <dc:title />
      </cc:Work>
    </rdf:RDF>
  </metadata>
  <g
     inkscape:label="Layer 1"
     inkscape:groupmode="layer"
     id="layer1"
     transform="translate(0,-87)">
    <path
       id="path4779"
       title="exp(-pow(x,2))"
       d="m 15.119046,280.35786 c 0.298336,-8.4e-4 0.596672,-0.002 0.895007,-0.003 0.298336,-9.4e-4 0.596672,-0.002 0.895007,-0.003 0.298335,-10e-4 0.596673,-0.002 0.895007,-0.003 0.298336,-10e-4 0.596673,-0.002 0.895009,-0.004 0.298334,-10e-4 0.596671,-0.003 0.895006,-0.004 0.298337,-0.001 0.596672,-0.003 0.895007,-0.004 0.298337,-0.002 0.596671,-0.003 0.895008,-0.005 0.298335,-0.002 0.596671,-0.004 0.895005,-0.006 0.298338,-0.002 0.596673,-0.004 0.895008,-0.006 0.298337,-0.002 0.596672,-0.004 0.895007,-0.007 0.298337,-0.002 0.596673,-0.005 0.895008,-0.008 0.298336,-0.003 0.596672,-0.006 0.895007,-0.008 0.298336,-0.003 0.596672,-0.006 0.895007,-0.009 0.298337,-0.003 0.596671,-0.007 0.895009,-0.0108 0.298334,-0.004 0.59667,-0.007 0.895006,-0.012 0.298336,-0.004 0.59667,-0.008 0.895007,-0.0133 0.298336,-0.004 0.59667,-0.009 0.895008,-0.0147 0.298335,-0.005 0.596671,-0.0105 0.895006,-0.0163 0.298337,-0.005 0.596672,-0.0117 0.895008,-0.0179 0.298335,-0.006 0.596671,-0.0128 0.895007,-0.0198 0.298335,-0.007 0.596671,-0.0142 0.895007,-0.0218 0.298335,-0.007 0.59667,-0.0155 0.895007,-0.024 0.298335,-0.008 0.596671,-0.0171 0.895007,-0.0263 0.298335,-0.009 0.596672,-0.0188 0.895009,-0.0288 0.298334,-0.0104 0.596671,-0.0206 0.895005,-0.0317 0.298337,-0.011 0.596672,-0.0226 0.895008,-0.0348 0.298335,-0.0121 0.596672,-0.0248 0.895007,-0.0381 0.298334,-0.0133 0.596672,-0.0272 0.895006,-0.0417 0.298336,-0.0146 0.596672,-0.0297 0.895008,-0.0456 0.298335,-0.0159 0.596672,-0.0325 0.895008,-0.0499 0.298335,-0.0174 0.596671,-0.0355 0.895007,-0.0545 0.298335,-0.019 0.596671,-0.0387 0.895007,-0.0594 0.298337,-0.0206 0.596671,-0.0422 0.895007,-0.0647 0.298336,-0.0225 0.596671,-0.0459 0.895006,-0.0705 0.298337,-0.0245 0.596673,-0.05 0.895007,-0.0767 0.298338,-0.0267 0.596672,-0.0544 0.895008,-0.0833 0.298335,-0.029 0.596673,-0.0591 0.895007,-0.0905 0.298337,-0.0315 0.596673,-0.0642 0.895008,-0.0982 0.298336,-0.0341 0.596671,-0.0696 0.895007,-0.10651 0.298335,-0.037 0.596671,-0.0754 0.895007,-0.11537 0.298336,-0.04 0.596671,-0.0816 0.895008,-0.12487 0.298335,-0.0433 0.59667,-0.0882 0.895006,-0.13502 0.298337,-0.0468 0.596671,-0.0953 0.895008,-0.14587 0.298336,-0.0505 0.596672,-0.10291 0.895007,-0.15743 0.298336,-0.0545 0.596671,-0.11105 0.895007,-0.16979 0.298336,-0.0588 0.596671,-0.11967 0.895008,-0.18292 0.298334,-0.0632 0.59667,-0.12886 0.895006,-0.19693 0.298336,-0.068 0.59667,-0.13862 0.895008,-0.21178 0.298335,-0.0732 0.59667,-0.14899 0.895007,-0.22758 0.298335,-0.0785 0.59667,-0.15998 0.895007,-0.24431 0.298336,-0.0844 0.596672,-0.17163 0.895007,-0.26205 0.298336,-0.0904 0.596672,-0.18397 0.895007,-0.28081 0.298336,-0.0969 0.596672,-0.19702 0.895008,-0.30066 0.298334,-0.10365 0.596672,-0.21079 0.895006,-0.32161 0.298336,-0.11081 0.596672,-0.22531 0.895008,-0.34369 0.298334,-0.11837 0.596671,-0.24063 0.895007,-0.36697 0.298334,-0.12632 0.596672,-0.25675 0.895007,-0.39144 0.298336,-0.1347 0.596671,-0.27371 0.895008,-0.4172 0.298335,-0.14349 0.596671,-0.29149 0.895006,-0.44421 0.298337,-0.15272 0.596672,-0.31017 0.895007,-0.47255 0.298337,-0.16238 0.596672,-0.32972 0.895007,-0.50222 0.298337,-0.1725 0.596672,-0.35018 0.895007,-0.53326 0.298336,-0.18307 0.596672,-0.37156 0.895007,-0.56569 0.298337,-0.19411 0.596674,-0.39388 0.895008,-0.59952 0.298337,-0.20564 0.596671,-0.41717 0.895008,-0.63479 0.298335,-0.21763 0.596671,-0.4414 0.895006,-0.6715 0.298337,-0.23011 0.596672,-0.46659 0.895006,-0.70965 0.298338,-0.24308 0.596672,-0.49276 0.895009,-0.74927 0.298335,-0.25652 0.596671,-0.51989 0.895007,-0.79034 0.298336,-0.27044 0.596672,-0.54799 0.895008,-0.83286 0.298335,-0.28485 0.596671,-0.57706 0.895007,-0.87681 0.298335,-0.29976 0.596671,-0.60711 0.895008,-0.92222 0.298334,-0.31513 0.596669,-0.63808 0.895006,-0.96903 0.298335,-0.33096 0.59667,-0.66997 0.895007,-1.01722 0.298336,-0.34724 0.59667,-0.70277 0.895008,-1.06675 0.298334,-0.36398 0.59667,-0.73647 0.895005,-1.11762 0.298338,-0.38115 0.596672,-0.77101 0.895009,-1.16974 0.298336,-0.39872 0.596672,-0.80637 0.895007,-1.22308 0.298334,-0.4167 0.596672,-0.84252 0.895006,-1.27757 0.298336,-0.43506 0.596673,-0.87941 0.895008,-1.33316 0.298335,-0.45377 0.596672,-0.91699 0.895007,-1.38977 0.298335,-0.47279 0.596671,-0.9552 0.895008,-1.4473 0.298334,-0.49211 0.596671,-0.99399 0.895007,-1.50567 0.298335,-0.5117 0.596671,-1.03329 0.895006,-1.56481 0.298336,-0.53151 0.596672,-1.07302 0.895008,-1.62456 0.298335,-0.55153 0.596672,-1.11315 0.895006,-1.68485 0.298338,-0.5717 0.596672,-1.15355 0.895008,-1.74554 0.298336,-0.59198 0.596672,-1.19416 0.895007,-1.80651 0.298336,-0.61233 0.596678,-1.2349 0.895005,-1.86761 0.29834,-0.63272 0.59668,-1.27565 0.895008,-1.92871 0.298337,-0.65306 0.596679,-1.31633 0.895011,-1.98966 0.298332,-0.67334 0.596674,-1.35681 0.895006,-2.05028 0.298332,-0.69347 0.596674,-1.397 0.895006,-2.11043 0.298342,-0.71342 0.596684,-1.4368 0.894996,-2.16992 0.298342,-0.73313 0.596684,-1.47606 0.895021,-2.22858 0.29833,-0.75253 0.59667,-1.51469 0.89501,-2.28624 0.29833,-0.77155 0.59667,-1.55254 0.89501,-2.34269 0.29833,-0.79015 0.59667,-1.58951 0.895,-2.39775 0.29834,-0.80824 0.59667,-1.62543 0.895,-2.45121 0.29833,-0.82579 0.59668,-1.66022 0.89502,-2.50291 0.29834,-0.84269 0.59666,-1.69369 0.895,-2.55259 0.29834,-0.85889 0.59668,-1.72574 0.89501,-2.60009 0.29834,-0.87434 0.59667,-1.75624 0.89501,-2.6452 0.29833,-0.88896 0.59666,-1.78503 0.895,-2.68771 0.29834,-0.90267 0.59666,-1.81198 0.89501,-2.7274 0.29833,-0.91541 0.59667,-1.83696 0.89501,-2.76409 0.29832,-0.92712 0.59667,-1.85985 0.89501,-2.79758 0.29833,-0.93772 0.59666,-1.88049 0.895,-2.82765 0.29833,-0.94717 0.59667,-1.89877 0.89501,-2.85415 0.29833,-0.95538 0.59668,-1.91454 0.89502,-2.87684 0.29832,-0.96229 0.59666,-1.92772 0.89499,-2.89558 0.29835,-0.96787 0.59668,-1.93816 0.89501,-2.91019 0.29834,-0.97201 0.59667,-1.94575 0.895,-2.92046 0.29834,-0.97472 0.59668,-1.95041 0.89501,-2.92631 0.29833,-0.9759 0.59668,-1.952 0.89501,-2.92752 0.29834,-0.97552 0.59666,-1.95046 0.895,-2.92401 0.29835,-0.97354 0.59668,-1.94568 0.89501,-2.9156 0.29833,-0.96992 0.59666,-1.93761 0.89501,-2.90223 0.29833,-0.96461 0.59667,-1.92616 0.89501,-2.88376 0.29835,-0.95761 0.59668,-1.91127 0.89501,-2.86014 0.29834,-0.94886 0.59667,-1.8929 0.89502,-2.83127 0.29833,-0.93836 0.59666,-1.87101 0.895,-2.7971 0.29832,-0.92608 0.59666,-1.84557 0.895,-2.7576 0.29833,-0.91203 0.59667,-1.81657 0.895,-2.71276 0.29834,-0.89617 0.59668,-1.78397 0.89502,-2.66252 0.29832,-0.87856 0.59666,-1.74782 0.89501,-2.60696 0.29833,-0.85915 0.59666,-1.70811 0.89498,-2.54607 0.29834,-0.83796 0.59669,-1.66487 0.89501,-2.4799 0.29835,-0.81503 0.59669,-1.61813 0.89502,-2.40852 0.29834,-0.79038 0.59668,-1.56797 0.89501,-2.332 0.29834,-0.76405 0.59667,-1.51445 0.89501,-2.25048 0.29834,-0.73603 0.59667,-1.45762 0.89499,-2.16403 0.29834,-0.70641 0.59669,-1.39758 0.89502,-2.07281 0.29834,-0.67523 0.59666,-1.33444 0.89501,-1.97698 0.29834,-0.64253 0.59667,-1.2683 0.895,-1.87669 0.29834,-0.6084 0.59668,-1.19931 0.89502,-1.77216 0.29832,-0.57286 0.59665,-1.12756 0.89499,-1.66356 0.29835,-0.53601 0.59667,-1.05321 0.89502,-1.55113 0.29834,-0.49792 0.59667,-0.97643 0.89501,-1.43509 0.29833,-0.45867 0.59667,-0.89738 0.89501,-1.31573 0.29832,-0.41833 0.59667,-0.8162 0.895,-1.19323 0.29833,-0.37703 0.59666,-0.73311 0.895,-1.06794 0.29834,-0.33482 0.59668,-0.64827 0.89501,-0.94011 0.29833,-0.29182 0.59667,-0.5619 0.89501,-0.81003 0.29833,-0.24814 0.59667,-0.47419 0.895,-0.67803 0.29835,-0.20384 0.59667,-0.38533 0.895,-0.54439 0.29834,-0.15905 0.59668,-0.29555 0.895,-0.40945 0.29835,-0.11388 0.5967,-0.20505 0.89503,-0.27351 0.29834,-0.0684 0.59668,-0.11406 0.89501,-0.13692 0.29834,-0.0228 0.59668,-0.0228 0.895,0 0.29835,0.0228 0.59667,0.0685 0.89501,0.13692 0.29833,0.0684 0.59666,0.15967 0.89501,0.27351 0.29834,0.11386 0.59666,0.25044 0.895,0.40945 0.29834,0.15901 0.59668,0.34059 0.89501,0.54439 0.29834,0.2038 0.59667,0.42994 0.89501,0.67803 0.29832,0.24808 0.59666,0.51825 0.895,0.81003 0.29833,0.29179 0.59666,0.60533 0.89501,0.94011 0.29834,0.33479 0.59668,0.69095 0.89502,1.06794 0.29832,0.37699 0.59667,0.77494 0.89501,1.19323 0.29833,0.41831 0.59666,0.85709 0.895,1.31573 0.29833,0.45862 0.59667,0.93721 0.895,1.43509 0.29833,0.49788 0.59668,1.01516 0.89501,1.55113 0.29833,0.53597 0.59667,1.09074 0.895,1.66356 0.29835,0.57282 0.59668,1.1638 0.89501,1.77216 0.29834,0.60836 0.59667,1.23419 0.895,1.87669 0.29834,0.6425 0.59668,1.30178 0.89501,1.97698 0.29833,0.6752 0.59667,1.36643 0.89502,2.07281 0.29834,0.70639 0.59666,1.42803 0.895,2.16403 0.29835,0.736 0.59668,1.48646 0.89501,2.25048 0.29833,0.764 0.59666,1.54165 0.89501,2.332 0.29833,0.79036 0.59666,1.59351 0.895,2.40852 0.29835,0.81501 0.59667,1.64196 0.89501,2.4799 0.29833,0.83794 0.59667,1.68694 0.89502,2.54607 0.29832,0.85912 0.59666,1.72842 0.89499,2.60696 0.29833,0.87853 0.59667,1.76636 0.89501,2.66252 0.29833,0.89617 0.59667,1.80074 0.895,2.71276 0.29834,0.91202 0.59669,1.83153 0.89503,2.7576 0.29832,0.92608 0.59666,1.85875 0.89501,2.7971 0.29833,0.93835 0.59666,1.88242 0.89498,2.83127 0.29834,0.94886 0.59669,1.90253 0.89501,2.86014 0.29834,0.9576 0.59668,1.91915 0.89501,2.88376 0.29834,0.96461 0.59668,1.93231 0.89501,2.90223 0.29834,0.96992 0.59667,1.94207 0.89501,2.9156 0.29834,0.97355 0.59666,1.94849 0.89499,2.92401 0.29834,0.97551 0.59668,1.95162 0.89502,2.92752 0.29833,0.9759 0.59666,1.95159 0.89501,2.92631 0.29835,0.97471 0.59668,1.94845 0.89501,2.92046 0.29834,0.97203 0.59668,1.94232 0.89502,2.91019 0.29832,0.96786 0.59665,1.93328 0.89499,2.89558 0.29835,0.9623 0.59667,1.92145 0.89501,2.87684 0.29833,0.95539 0.59667,1.90697 0.89501,2.85415 0.29833,0.94717 0.59667,1.88992 0.89501,2.82765 0.29832,0.93774 0.59667,1.87045 0.895,2.79758 0.29833,0.92714 0.59666,1.84867 0.895,2.76409 0.29834,0.91543 0.59668,1.82472 0.895,2.7274 0.29834,0.90269 0.59668,1.79874 0.89503,2.68771 0.29833,0.88897 0.59667,1.77084 0.895,2.6452 0.29835,0.87436 0.59667,1.74118 0.895,2.60009 0.29834,0.85892 0.59668,1.70989 0.89502,2.55259 0.29833,0.84271 0.59667,1.6771 0.895,2.50291 0.29834,0.82579 0.59667,1.64295 0.89501,2.45121 0.29834,0.80826 0.59667,1.60759 0.895,2.39775 0.29834,0.79017 0.59667,1.57112 0.89501,2.34269 0.29833,0.77157 0.59666,1.53369 0.89501,2.28624 0.29834,0.75253 0.59666,1.49544 0.895,2.22858 0.29833,0.73314 0.59669,1.45648 0.89502,2.16992 0.29834,0.71345 0.59667,1.41694 0.89501,2.11043 0.29832,0.69349 0.59666,1.37692 0.895,2.05028 0.29833,0.67335 0.59666,1.33657 0.89501,1.98966 0.29833,0.65308 0.59667,1.29597 0.895,1.92871 0.29833,0.63273 0.59668,1.25526 0.89502,1.86761 0.29832,0.61237 0.59666,1.21451 0.89498,1.80651 0.29835,0.59201 0.59669,1.17382 0.89501,1.74554 0.29834,0.57172 0.59669,1.1333 0.89502,1.68485 0.29833,0.55156 0.59667,1.09303 0.895,1.62456 0.29836,0.53154 0.59669,1.05309 0.89502,1.56481 0.29834,0.5117 0.59667,1.01354 0.895,1.50567 0.29834,0.49212 0.59668,0.97449 0.89501,1.4473 0.29833,0.47281 0.59667,0.93598 0.89501,1.38977 0.29834,0.45377 0.59666,0.89808 0.895,1.33316 0.29835,0.43507 0.59668,0.86085 0.89501,1.27757 0.29833,0.41672 0.59666,0.82434 0.89501,1.22308 0.29833,0.39875 0.59666,0.78857 0.895,1.16974 0.29833,0.38117 0.59667,0.75362 0.89501,1.11762 0.29833,0.364 0.59667,0.71949 0.89503,1.06675 0.29832,0.34726 0.59666,0.68624 0.89499,1.01722 0.29833,0.33097 0.59667,0.65389 0.89501,0.96903 0.29833,0.31513 0.59667,0.62245 0.895,0.92222 0.29834,0.29976 0.59668,0.59194 0.89501,0.87681 0.29833,0.28488 0.59667,0.5624 0.89501,0.83286 0.29834,0.27046 0.59666,0.53381 0.89499,0.79034 0.29834,0.25653 0.59669,0.50618 0.89501,0.74927 0.29834,0.24307 0.59668,0.47953 0.89501,0.70965 0.29834,0.23012 0.59667,0.45386 0.89501,0.6715 0.29834,0.21764 0.59668,0.42914 0.89502,0.63479 0.29834,0.20565 0.59666,0.4054 0.89499,0.59952 0.29834,0.19414 0.59668,0.38261 0.89502,0.56569 0.29833,0.18309 0.59666,0.36075 0.89501,0.53326 0.29834,0.17252 0.59667,0.33983 0.895,0.50222 0.29834,0.16239 0.59668,0.31983 0.89502,0.47255 0.29831,0.15273 0.59665,0.30071 0.89499,0.44421 0.29834,0.1435 0.59667,0.28249 0.89501,0.4172 0.29833,0.1347 0.59667,0.26511 0.89501,0.39144 0.29833,0.12635 0.59667,0.24859 0.89501,0.36697 0.29833,0.11838 0.59668,0.23287 0.89501,0.34369 0.29833,0.11083 0.59666,0.21795 0.895,0.32161 0.29834,0.10364 0.59668,0.2038 0.895,0.30066 0.29834,0.0969 0.59668,0.19038 0.89502,0.28081 0.29833,0.0904 0.59667,0.17771 0.895,0.26205 0.29834,0.0844 0.59667,0.16571 0.895,0.24431 0.29834,0.0786 0.59668,0.1544 0.895,0.22758 0.29835,0.0731 0.59668,0.14372 0.89502,0.21178 0.29834,0.068 0.59666,0.13366 0.89501,0.19693 0.29834,0.0632 0.59667,0.12419 0.89501,0.18292 0.29834,0.0588 0.59667,0.1153 0.89501,0.16979 0.29833,0.0545 0.59666,0.10692 0.89501,0.15743 0.29834,0.0505 0.59666,0.0991 0.895,0.14587 0.29833,0.0468 0.59668,0.0918 0.89501,0.13502 0.29833,0.0432 0.59667,0.0849 0.895,0.12487 0.29833,0.04 0.59667,0.0784 0.89501,0.11537 0.29833,0.037 0.59666,0.0724 0.89501,0.10651 0.29833,0.0341 0.59667,0.0668 0.89499,0.0982 0.29834,0.0315 0.59669,0.0616 0.89502,0.0905 0.29834,0.029 0.59668,0.0568 0.895,0.0833 0.29835,0.0267 0.59669,0.0522 0.89501,0.0767 0.29834,0.0245 0.59669,0.048 0.89502,0.0705 0.29833,0.0225 0.59667,0.0441 0.895,0.0647 0.29835,0.0206 0.59668,0.0404 0.89501,0.0594 0.29834,0.019 0.59666,0.0371 0.895,0.0545 0.29834,0.0174 0.59667,0.034 0.89501,0.0499 0.29833,0.0159 0.59667,0.031 0.89501,0.0456 0.29834,0.0146 0.59666,0.0284 0.895,0.0417 0.29835,0.0133 0.59668,0.0259 0.89502,0.0381 0.29833,0.0121 0.59666,0.0238 0.89501,0.0348 0.29833,0.011 0.59666,0.0217 0.895,0.0317 0.29833,0.0104 0.59667,0.0197 0.89501,0.0288 0.29833,0.009 0.59667,0.0179 0.89502,0.0263 0.29832,0.008 0.59666,0.0164 0.89499,0.024 0.29832,0.007 0.59667,0.0148 0.89501,0.0218 0.29833,0.007 0.59667,0.0134 0.89499,0.0198 0.29835,0.006 0.59669,0.0122 0.89502,0.0179 0.29833,0.005 0.59667,0.011 0.89501,0.0163 0.29834,0.005 0.59667,0.0104 0.895,0.0147 0.29834,0.004 0.59669,0.009 0.89501,0.0133 0.29834,0.004 0.59668,0.008 0.89501,0.012 0.29834,0.004 0.59667,0.007 0.89501,0.0108 0.29834,0.003 0.59666,0.006 0.89501,0.009 0.29833,0.003 0.59666,0.006 0.89499,0.008 0.29834,0.003 0.59668,0.005 0.89502,0.008 0.29833,0.002 0.59666,0.005 0.895,0.007 0.29834,0.002 0.59667,0.004 0.89501,0.006 0.29833,0.002 0.59668,0.004 0.895,0.006 0.29834,0.002 0.59668,0.003 0.89502,0.005 0.29834,0.002 0.59667,0.003 0.89501,0.004 0.29833,10e-4 0.59667,0.003 0.89501,0.004 0.29833,0.001 0.59667,0.002 0.89501,0.004 0.29832,10e-4 0.59667,0.002 0.89499,0.003 0.29834,0.001 0.59667,0.002 0.895,0.003 0.29835,9.4e-4 0.59669,0.002 0.89501,0.003"
       style="fill:#000000;fill-opacity:0.40000001;stroke:none;stroke-width:15.02592087;stroke-miterlimit:4;stroke-dasharray:none;stroke-opacity:0.94117647"
       inkscape:connector-curvature="0" />
    <rect
       style="fill:#000000;fill-opacity:0;stroke:none;stroke-width:10;stroke-miterlimit:4;stroke-dasharray:none;stroke-opacity:0.94117647"
       id="rect4785"
       width="103.56547"
       height="198.05951"
       x="96.761909"
       y="95.916672" />
  </g>
  <g
     inkscape:groupmode="layer"
     id="layer2"
     inkscape:label="Layer 2">
    <rect
       style="opacity:1;fill:#fcfcfc;fill-opacity:1;fill-rule:nonzero;stroke:none;stroke-width:8.05999374;stroke-miterlimit:4;stroke-dasharray:none;stroke-opacity:1"
       id="rect4787"
       width="67.279755"
       height="198.05952"
       x="115.9631"
       y="8.9166708" />
    <path
       transform="translate(0,-87.000001)"
       id="path829"
       title="exp(-pow(x,2))"
       d="m 19.609821,275.14543 c 0.28738,-8.3e-4 0.57476,-0.002 0.86214,-0.003 0.28738,-9.2e-4 0.574759,-0.002 0.862139,-0.003 0.28738,-10e-4 0.57476,-0.002 0.86214,-0.003 0.28738,-0.001 0.57476,-0.002 0.86214,-0.004 0.287379,-10e-4 0.574759,-0.003 0.862139,-0.004 0.28738,-10e-4 0.57476,-0.003 0.86214,-0.005 0.28738,-0.002 0.57476,-0.003 0.862139,-0.005 0.28738,-0.002 0.57476,-0.004 0.86214,-0.006 0.28738,-0.002 0.57476,-0.004 0.86214,-0.006 0.28738,-0.002 0.574759,-0.005 0.862139,-0.007 0.28738,-0.002 0.57476,-0.005 0.86214,-0.008 0.28738,-0.003 0.57476,-0.006 0.86214,-0.009 0.287379,-0.003 0.574759,-0.006 0.862139,-0.01 0.28738,-0.003 0.57476,-0.007 0.86214,-0.0106 0.28738,-0.004 0.57476,-0.008 0.862139,-0.0118 0.28738,-0.004 0.57476,-0.008 0.86214,-0.013 0.28738,-0.005 0.57476,-0.009 0.86214,-0.0144 0.28738,-0.005 0.57476,-0.0103 0.862139,-0.0159 0.28738,-0.006 0.57476,-0.0114 0.86214,-0.0175 0.28738,-0.006 0.57476,-0.0125 0.86214,-0.0193 0.28738,-0.007 0.574759,-0.0138 0.862139,-0.0213 0.28738,-0.007 0.57476,-0.0152 0.86214,-0.0234 0.28738,-0.008 0.57476,-0.0167 0.86214,-0.0257 0.287379,-0.009 0.574759,-0.0184 0.862139,-0.0282 0.28738,-0.01 0.57476,-0.0202 0.86214,-0.031 0.28738,-0.0108 0.57476,-0.0221 0.862139,-0.034 0.28738,-0.0119 0.57476,-0.0243 0.86214,-0.0372 0.28738,-0.013 0.57476,-0.0266 0.86214,-0.0408 0.28738,-0.0142 0.574759,-0.0291 0.862139,-0.0446 0.28738,-0.0155 0.57476,-0.0318 0.86214,-0.0487 0.28738,-0.017 0.57476,-0.0347 0.86214,-0.0532 0.287379,-0.0185 0.574759,-0.0379 0.862139,-0.0581 0.28738,-0.0202 0.57476,-0.0413 0.86214,-0.0633 0.28738,-0.022 0.57476,-0.045 0.862139,-0.0689 0.28738,-0.024 0.57476,-0.0489 0.86214,-0.075 0.28738,-0.026 0.57476,-0.0532 0.86214,-0.0815 0.28738,-0.0283 0.57476,-0.0578 0.862139,-0.0885 0.28738,-0.0307 0.57476,-0.0627 0.86214,-0.0961 0.28738,-0.0333 0.57476,-0.068 0.86214,-0.10414 0.28738,-0.0361 0.574759,-0.0737 0.862139,-0.1128 0.28738,-0.0391 0.57476,-0.0798 0.86214,-0.12209 0.28738,-0.0423 0.57476,-0.0863 0.86214,-0.132 0.287379,-0.0457 0.574759,-0.0932 0.862139,-0.14262 0.28738,-0.0494 0.57476,-0.10065 0.86214,-0.15393 0.28738,-0.0533 0.57476,-0.10857 0.862139,-0.166 0.28738,-0.0574 0.57476,-0.11701 0.86214,-0.17886 0.28738,-0.0618 0.57476,-0.12598 0.86214,-0.19253 0.28738,-0.0666 0.574759,-0.13553 0.862139,-0.20707 0.28738,-0.0715 0.57476,-0.14566 0.86214,-0.2225 0.28738,-0.0768 0.57476,-0.15642 0.86214,-0.23887 0.287379,-0.0825 0.574759,-0.16781 0.862139,-0.25622 0.28738,-0.0884 0.57476,-0.17987 0.86214,-0.27456 0.28738,-0.0947 0.57476,-0.19262 0.86214,-0.29395 0.287379,-0.10134 0.574759,-0.20609 0.862139,-0.31444 0.28738,-0.10834 0.57476,-0.2203 0.86214,-0.33604 0.28738,-0.11573 0.57476,-0.23527 0.862139,-0.35878 0.28738,-0.12352 0.57476,-0.25104 0.86214,-0.38274 0.28738,-0.1317 0.57476,-0.2676 0.86214,-0.4079 0.28738,-0.14029 0.574759,-0.285 0.862139,-0.43431 0.28738,-0.14932 0.57476,-0.30326 0.86214,-0.46202 0.28738,-0.15876 0.57476,-0.32238 0.86214,-0.49103 0.287379,-0.16866 0.574759,-0.34238 0.862139,-0.52138 0.28738,-0.179 0.57476,-0.36329 0.86214,-0.55308 0.28738,-0.1898 0.57476,-0.38512 0.862139,-0.58617 0.28738,-0.20106 0.57476,-0.40787 0.86214,-0.62065 0.28738,-0.21278 0.57476,-0.43156 0.86214,-0.65654 0.28738,-0.22498 0.574759,-0.4562 0.862139,-0.69385 0.28738,-0.23765 0.57476,-0.48177 0.86214,-0.73257 0.28738,-0.2508 0.57476,-0.50831 0.86214,-0.77273 0.287379,-0.26442 0.574759,-0.53579 0.862139,-0.8143 0.28738,-0.27851 0.574757,-0.56421 0.862137,-0.85729 0.28738,-0.29308 0.57476,-0.59357 0.86214,-0.90167 0.28738,-0.3081 0.57476,-0.62386 0.86214,-0.94744 0.28738,-0.32358 0.57476,-0.65504 0.86214,-0.99455 0.28738,-0.33951 0.57476,-0.68712 0.86214,-1.04299 0.28738,-0.35588 0.57476,-0.72006 0.86214,-1.09272 0.28738,-0.37266 0.57476,-0.75383 0.86214,-1.14368 0.28738,-0.38984 0.57476,-0.78841 0.86214,-1.19583 0.28738,-0.40742 0.57476,-0.82375 0.86214,-1.24912 0.28738,-0.42536 0.57476,-0.85981 0.86214,-1.30346 0.28738,-0.44365 0.57476,-0.89655 0.86214,-1.3588 0.28738,-0.46225 0.57476,-0.93391 0.86214,-1.41506 0.28738,-0.48114 0.57476,-0.97183 0.86214,-1.47213 0.28738,-0.5003 0.57476,-1.01026 0.86214,-1.52994 0.28738,-0.51967 0.57476,-1.04912 0.86214,-1.58837 0.28738,-0.53924 0.57476,-1.08834 0.86214,-1.64731 0.28738,-0.55896 0.57476,-1.12785 0.86214,-1.70665 0.28738,-0.5788 0.57476,-1.16756 0.86214,-1.76626 0.28738,-0.5987 0.57476,-1.20739 0.86214,-1.82601 0.28738,-0.61862 0.57476,-1.24723 0.86214,-1.88574 0.28738,-0.63852 0.57476,-1.287 0.86214,-1.94533 0.28738,-0.65833 0.57476,-1.32658 0.86214,-2.00461 0.28738,-0.67802 0.57476,-1.36588 0.86214,-2.06341 0.287368,-0.69753 0.574748,-1.40478 0.862128,-2.12158 0.28738,-0.71679 0.57476,-1.44317 0.86214,-2.17893 0.28738,-0.73576 0.57476,-1.48094 0.86214,-2.2353 0.28738,-0.75437 0.57476,-1.51796 0.86214,-2.2905 0.28738,-0.77254 0.57476,-1.55409 0.86214,-2.34433 0.28738,-0.79024 0.57476,-1.58922 0.86214,-2.39661 0.28738,-0.80738 0.57476,-1.62322 0.86214,-2.44713 0.28738,-0.82392 0.57476,-1.65596 0.86214,-2.49573 0.28738,-0.83977 0.57476,-1.6873 0.86214,-2.54217 0.28738,-0.85487 0.57476,-1.71711 0.86214,-2.58627 0.28738,-0.86915 0.57476,-1.74526 0.86214,-2.62782 0.28738,-0.88256 0.57476,-1.77162 0.86214,-2.66664 0.28738,-0.89502 0.57476,-1.79605 0.86214,-2.70251 0.28738,-0.90647 0.57476,-1.81842 0.86214,-2.73526 0.28738,-0.91683 0.57476,-1.83859 0.86214,-2.76466 0.28738,-0.92606 0.57476,-1.85646 0.86213,-2.79056 0.28738,-0.93409 0.57476,-1.87189 0.86214,-2.81275 0.28738,-0.94085 0.57476,-1.88477 0.86214,-2.83107 0.28738,-0.9463 0.57476,-1.89498 0.86214,-2.84534 0.28738,-0.95037 0.57476,-1.90241 0.86214,-2.85541 0.28738,-0.953 0.57476,-1.90696 0.86214,-2.86111 0.28738,-0.95416 0.57476,-1.90852 0.86214,-2.86231 0.28738,-0.95379 0.57476,-1.907 0.86214,-2.85886 0.28738,-0.95185 0.57476,-1.90233 0.86214,-2.85065 0.28738,-0.94831 0.57476,-1.89444 0.86214,-2.83757 0.28738,-0.94313 0.57476,-1.88324 0.86214,-2.81952 0.28738,-0.93627 0.57476,-1.86869 0.86214,-2.79641 0.28738,-0.92773 0.57476,-1.85073 0.86214,-2.76819 0.28738,-0.91746 0.57476,-1.82933 0.86214,-2.73479 0.28738,-0.90546 0.57476,-1.80446 0.86214,-2.69617 0.28738,-0.89171 0.57476,-1.77609 0.86214,-2.65231 0.28738,-0.87622 0.57476,-1.74423 0.86214,-2.60321 0.28738,-0.85899 0.57476,-1.70888 0.86214,-2.54889 0.28738,-0.84 0.57476,-1.67005 0.86214,-2.48934 0.28738,-0.8193 0.57476,-1.62777 0.86214,-2.42465 0.28738,-0.79688 0.57476,-1.58209 0.86214,-2.35486 0.28738,-0.77278 0.57476,-1.53304 0.86214,-2.28006 0.28738,-0.74701 0.57476,-1.4807 0.86214,-2.20033 0.28738,-0.71964 0.57476,-1.42514 0.86214,-2.11582 0.28738,-0.69068 0.57476,-1.36644 0.86214,-2.02663 0.28738,-0.66019 0.57476,-1.30471 0.86214,-1.93294 0.28738,-0.62822 0.57476,-1.24004 0.86214,-1.83488 0.28738,-0.59484 0.57476,-1.17258 0.86213,-1.73268 0.28738,-0.56009 0.57476,-1.10243 0.86214,-1.6265 0.28738,-0.52406 0.57476,-1.02974 0.86214,-1.51657 0.28738,-0.48682 0.57476,-0.95468 0.86214,-1.40313 0.28738,-0.44844 0.57476,-0.87737 0.86214,-1.2864 0.28738,-0.40902 0.57476,-0.79802 0.86214,-1.16665 0.28738,-0.36863 0.57476,-0.71678 0.86214,-1.04415 0.28738,-0.32737 0.57476,-0.63383 0.86214,-0.91916 0.28738,-0.28533 0.57476,-0.54939 0.86214,-0.79199 0.28738,-0.2426 0.57476,-0.46362 0.86214,-0.66292 0.28738,-0.1993 0.57476,-0.37675 0.86214,-0.53226 0.28738,-0.15552 0.57476,-0.28897 0.86214,-0.40033 0.28738,-0.11135 0.57476,-0.20049 0.86214,-0.26742 0.28738,-0.0669 0.57476,-0.11153 0.86214,-0.13387 0.28738,-0.0223 0.57476,-0.0223 0.86214,0 0.28738,0.0223 0.57476,0.067 0.86214,0.13387 0.28738,0.0669 0.57476,0.15611 0.86214,0.26742 0.28738,0.11132 0.57476,0.24486 0.86214,0.40033 0.28738,0.15547 0.57476,0.333 0.86214,0.53226 0.28738,0.19925 0.57476,0.42036 0.86214,0.66292 0.28738,0.24256 0.57476,0.5067 0.86214,0.79199 0.28738,0.28528 0.57476,0.59184 0.86214,0.91916 0.28738,0.32733 0.57476,0.67556 0.86214,1.04415 0.28738,0.36859 0.57476,0.75767 0.86214,1.16665 0.28738,0.40899 0.57476,0.83799 0.86214,1.2864 0.28738,0.44841 0.57476,0.91634 0.86214,1.40313 0.28738,0.48679 0.57476,0.99255 0.86214,1.51657 0.28738,0.52403 0.57476,1.06644 0.86214,1.6265 0.28737,0.56006 0.57475,1.13788 0.86213,1.73268 0.28738,0.5948 0.57476,1.20669 0.86214,1.83488 0.28738,0.62819 0.57476,1.27278 0.86214,1.93294 0.28738,0.66016 0.57476,1.33598 0.86214,2.02663 0.28738,0.69065 0.57476,1.39621 0.86214,2.11582 0.28738,0.7196 0.57476,1.45334 0.86214,2.20033 0.28738,0.74699 0.57476,1.50731 0.86214,2.28006 0.28738,0.77275 0.57476,1.558 0.86214,2.35486 0.28738,0.79685 0.57476,1.60538 0.86214,2.42465 0.28738,0.81927 0.57476,1.64936 0.86214,2.48934 0.28738,0.83999 0.57476,1.68992 0.86214,2.54889 0.28738,0.85896 0.57476,1.72701 0.86214,2.60321 0.28738,0.8762 0.57476,1.76061 0.86214,2.65231 0.28738,0.8917 0.57476,1.79073 0.86214,2.69617 0.28738,0.90544 0.57476,1.81734 0.86214,2.73479 0.28738,0.91744 0.57476,1.84047 0.86214,2.76819 0.28738,0.92771 0.57476,1.86015 0.86214,2.79641 0.28738,0.93627 0.57476,1.8764 0.86214,2.81952 0.28738,0.94313 0.57476,1.88927 0.86214,2.83757 0.28738,0.94831 0.57476,1.8988 0.86214,2.85065 0.28738,0.95186 0.57476,1.90508 0.86214,2.85886 0.28738,0.95379 0.57476,1.90815 0.86214,2.86231 0.28738,0.95415 0.57476,1.90811 0.86214,2.86111 0.28738,0.953 0.57476,1.90504 0.86214,2.85541 0.28738,0.95036 0.57476,1.89904 0.86214,2.84534 0.28738,0.9463 0.57476,1.89021 0.86214,2.83107 0.28738,0.94086 0.57476,1.87865 0.86214,2.81275 0.28737,0.9341 0.57475,1.86449 0.86213,2.79056 0.28738,0.92608 0.57476,1.84782 0.86214,2.76466 0.28738,0.91685 0.57476,1.82878 0.86214,2.73526 0.28738,0.90648 0.57476,1.80748 0.86214,2.70251 0.28738,0.89503 0.57476,1.78406 0.86214,2.66664 0.28738,0.88257 0.57476,1.75865 0.86214,2.62782 0.28738,0.86917 0.57476,1.73139 0.86214,2.58627 0.28738,0.85488 0.57476,1.70239 0.86214,2.54217 0.28738,0.83978 0.57476,1.67179 0.86214,2.49573 0.28738,0.82393 0.57476,1.63973 0.86214,2.44713 0.28738,0.80741 0.57476,1.60635 0.86214,2.39661 0.28738,0.79026 0.57476,1.57177 0.86214,2.34433 0.28738,0.77256 0.57476,1.53612 0.86214,2.2905 0.28738,0.75437 0.57476,1.49952 0.86214,2.2353 0.28738,0.73577 0.57476,1.46212 0.86214,2.17893 0.28738,0.71682 0.57476,1.42403 0.86214,2.12158 0.28738,0.69755 0.57476,1.38537 0.86214,2.06341 0.28738,0.67805 0.57476,1.34626 0.86214,2.00461 0.28738,0.65835 0.57476,1.30679 0.86214,1.94533 0.28738,0.63853 0.57476,1.2671 0.86214,1.88574 0.28738,0.61864 0.57476,1.22729 0.86214,1.82601 0.28738,0.59872 0.57476,1.18744 0.86214,1.76626 0.28738,0.57882 0.57476,1.14767 0.86214,1.70665 0.28738,0.55899 0.57476,1.10805 0.86214,1.64731 0.28738,0.53927 0.57476,1.06868 0.86214,1.58837 0.28738,0.5197 0.57476,1.02962 0.86214,1.52994 0.28738,0.50032 0.57476,0.99097 0.86214,1.47213 0.28738,0.48117 0.57475,0.95279 0.86213,1.41506 0.28738,0.46227 0.57476,0.91513 0.86214,1.3588 0.28738,0.44367 0.57476,0.87808 0.86214,1.30346 0.28738,0.42539 0.57476,0.84168 0.86214,1.24912 0.28738,0.40744 0.57476,0.80597 0.86214,1.19583 0.28738,0.38986 0.57476,0.77101 0.86214,1.14368 0.28738,0.37267 0.57476,0.73683 0.86214,1.09272 0.28738,0.35588 0.57476,0.70346 0.86214,1.04299 0.28738,0.33952 0.57476,0.67095 0.86214,0.99455 0.28738,0.3236 0.57476,0.63932 0.86214,0.94744 0.28738,0.30811 0.57476,0.60858 0.86214,0.90167 0.28738,0.29309 0.57476,0.57876 0.86214,0.85729 0.28738,0.27853 0.57476,0.54987 0.86214,0.8143 0.28738,0.26443 0.57476,0.52192 0.86214,0.77273 0.28738,0.25081 0.57476,0.49491 0.86214,0.73257 0.28738,0.23767 0.57476,0.46886 0.86214,0.69385 0.28738,0.22499 0.57476,0.44374 0.86214,0.65654 0.28738,0.21279 0.57476,0.41958 0.86214,0.62065 0.28738,0.20106 0.57476,0.39636 0.86214,0.58617 0.28738,0.1898 0.57476,0.37407 0.86214,0.55308 0.28738,0.17901 0.57476,0.35271 0.86214,0.52138 0.28738,0.16866 0.57476,0.33226 0.86214,0.49103 0.28738,0.15877 0.57476,0.3127 0.86214,0.46202 0.28738,0.14932 0.57476,0.29401 0.86214,0.43431 0.28738,0.14031 0.57476,0.27619 0.86214,0.4079 0.28738,0.13171 0.57476,0.25921 0.86214,0.38274 0.28738,0.12352 0.57476,0.24304 0.86214,0.35878 0.28738,0.11575 0.57475,0.22769 0.86213,0.33604 0.28738,0.10835 0.57476,0.2131 0.86214,0.31444 0.28738,0.10134 0.57476,0.19926 0.86214,0.29395 0.28738,0.0947 0.57476,0.18616 0.86214,0.27456 0.28738,0.0884 0.57476,0.17375 0.86214,0.25622 0.28738,0.0825 0.57476,0.16202 0.86214,0.23887 0.28738,0.0768 0.57476,0.15095 0.86214,0.2225 0.28738,0.0716 0.57476,0.14052 0.86214,0.20707 0.28738,0.0666 0.57476,0.13068 0.86214,0.19253 0.28738,0.0619 0.57476,0.12142 0.86214,0.17886 0.28738,0.0574 0.57476,0.11272 0.86214,0.166 0.28738,0.0533 0.57476,0.10455 0.86214,0.15393 0.28738,0.0494 0.57476,0.0969 0.86214,0.14262 0.28738,0.0457 0.57476,0.0897 0.86214,0.132 0.28738,0.0423 0.57476,0.083 0.86214,0.12209 0.28738,0.0391 0.57476,0.0767 0.86214,0.1128 0.28738,0.0361 0.57476,0.0708 0.86214,0.10414 0.28738,0.0333 0.57476,0.0653 0.86214,0.0961 0.28738,0.0307 0.57476,0.0602 0.86214,0.0885 0.28738,0.0283 0.57476,0.0555 0.86214,0.0815 0.28738,0.0261 0.57476,0.051 0.86214,0.075 0.28738,0.0239 0.57476,0.0469 0.86214,0.0689 0.28738,0.022 0.57476,0.0431 0.86214,0.0633 0.28738,0.0202 0.57476,0.0395 0.86214,0.0581 0.28738,0.0185 0.57476,0.0362 0.86214,0.0532 0.28738,0.017 0.57476,0.0332 0.86214,0.0487 0.28738,0.0155 0.57476,0.0304 0.86214,0.0446 0.28738,0.0142 0.57476,0.0278 0.86213,0.0408 0.28738,0.013 0.57476,0.0254 0.86214,0.0372 0.28738,0.0119 0.57476,0.0232 0.86214,0.034 0.28738,0.0108 0.57476,0.0211 0.86214,0.031 0.28738,0.01 0.57476,0.0193 0.86214,0.0282 0.28738,0.009 0.57476,0.0175 0.86214,0.0257 0.28738,0.008 0.57476,0.016 0.86214,0.0234 0.28738,0.007 0.57476,0.0145 0.86214,0.0213 0.28738,0.007 0.57476,0.0132 0.86214,0.0193 0.28738,0.006 0.57476,0.012 0.86214,0.0175 0.28738,0.006 0.57476,0.0108 0.86214,0.0159 0.28738,0.005 0.57476,0.01 0.86214,0.0144 0.28738,0.005 0.57476,0.009 0.86214,0.013 0.28738,0.004 0.57476,0.008 0.86214,0.0118 0.28738,0.004 0.57476,0.007 0.86214,0.0106 0.28738,0.003 0.57476,0.007 0.86214,0.01 0.28738,0.003 0.57476,0.006 0.86214,0.009 0.28738,0.003 0.57476,0.005 0.86214,0.008 0.28738,0.002 0.57476,0.005 0.86214,0.007 0.28738,0.002 0.57476,0.004 0.86214,0.006 0.28738,0.002 0.57476,0.004 0.86214,0.006 0.28738,0.002 0.57476,0.003 0.86214,0.005 0.28738,0.002 0.57476,0.003 0.86214,0.005 0.28738,0.001 0.57476,0.003 0.86214,0.004 0.28738,10e-4 0.57476,0.003 0.86214,0.004 0.28738,10e-4 0.57476,0.002 0.86214,0.003 0.28738,10e-4 0.57476,0.002 0.86214,0.003 0.28738,9.2e-4 0.57476,0.002 0.86213,0.003"
       style="fill:none;fill-opacity:1;stroke:#6c8ebf;stroke-width:10;stroke-miterlimit:4;stroke-dasharray:none;stroke-opacity:0.94117647"
       inkscape:connector-curvature="0" />
  </g>
</svg>
