<?xml version="1.0" encoding="UTF-8" standalone="no"?>
<!-- Created with Inkscape (http://www.inkscape.org/) -->

<svg
   xmlns:dc="http://purl.org/dc/elements/1.1/"
   xmlns:cc="http://creativecommons.org/ns#"
   xmlns:rdf="http://www.w3.org/1999/02/22-rdf-syntax-ns#"
   xmlns:svg="http://www.w3.org/2000/svg"
   xmlns="http://www.w3.org/2000/svg"
   xmlns:sodipodi="http://sodipodi.sourceforge.net/DTD/sodipodi-0.dtd"
   xmlns:inkscape="http://www.inkscape.org/namespaces/inkscape"
   width="297mm"
   height="210mm"
   viewBox="0 0 297 210"
   version="1.1"
   id="svg8"
   inkscape:version="0.92.5 (2060ec1f9f, 2020-04-08)"
   sodipodi:docname="gaussian_curve.svg">
  <defs
     id="defs2" />
  <sodipodi:namedview
     id="base"
     pagecolor="#ffffff"
     bordercolor="#666666"
     borderopacity="1.0"
     inkscape:pageopacity="0.0"
     inkscape:pageshadow="2"
     inkscape:zoom="0.35"
     inkscape:cx="-104.28571"
     inkscape:cy="548.57143"
     inkscape:document-units="mm"
     inkscape:current-layer="layer1"
     showgrid="false"
     inkscape:window-width="2560"
     inkscape:window-height="1376"
     inkscape:window-x="0"
     inkscape:window-y="27"
     inkscape:window-maximized="1" />
  <metadata
     id="metadata5">
    <rdf:RDF>
      <cc:Work
         rdf:about="">
        <dc:format>image/svg+xml</dc:format>
        <dc:type
           rdf:resource="http://purl.org/dc/dcmitype/StillImage" />
        <dc:title></dc:title>
      </cc:Work>
    </rdf:RDF>
  </metadata>
  <g
     inkscape:label="Layer 1"
     inkscape:groupmode="layer"
     id="layer1"
     transform="translate(0,-87)">
    <path
       id="path829"
       title="exp(-pow(x,2))"
       d=" M 19.654762 276.568765775 C 19.9421418774 276.567942013 20.2295217547 276.567071502 20.5169016321 276.566149032 C 20.8042815095 276.565226561 21.0916613868 276.564251916 21.3790412642 276.563219671 C 21.6664211416 276.562187425 21.953801019 276.561097235 22.2411808963 276.559943133 C 22.5285607737 276.558789031 22.8159406511 276.557570636 23.1033205284 276.556281392 C 23.3907004058 276.554992148 23.6780802832 276.553631631 23.9654601605 276.552192648 C 24.2528400379 276.550753664 24.5402199153 276.549235744 24.8275997926 276.547630999 C 25.11497967 276.546026254 25.4023595474 276.544334165 25.6897394247 276.542546091 C 25.9771193021 276.540758018 26.2644991795 276.538873386 26.5518790569 276.536882742 C 26.8392589342 276.534892099 27.1266388116 276.532794809 27.414018689 276.53058054 C 27.7013985663 276.528366272 27.9887784437 276.526034325 28.2761583211 276.523573418 C 28.5635381984 276.521112511 28.8509180758 276.518521872 29.1382979532 276.515789197 C 29.4256778305 276.513056521 29.7130577079 276.510180958 30.0004375853 276.507149103 C 30.2878174627 276.504117247 30.57519734 276.500928162 30.8625772174 276.497567256 C 31.1499570948 276.494206351 31.4373369721 276.490672596 31.7247168495 276.486950129 C 32.0120967269 276.483227661 32.2994766042 276.47931535 32.5868564816 276.475195967 C 32.874236359 276.471076584 33.1616162363 276.466748888 33.4489961137 276.462194189 C 33.7363759911 276.45763949 34.0237558684 276.452856428 34.3111357458 276.447824748 C 34.5985156232 276.442793069 34.8858955006 276.437511281 35.1732753779 276.431957461 C 35.4606552553 276.42640364 35.7480351327 276.420576156 36.03541501 276.414451301 C 36.3227948874 276.408326447 36.6101747648 276.401902438 36.8975546421 276.395153671 C 37.1849345195 276.388404903 37.4723143969 276.381329428 37.7596942742 276.373899621 C 38.0470741516 276.366469815 38.334454029 276.35868355 38.6218339064 276.350511059 C 38.9092137837 276.342338567 39.1965936611 276.333777531 39.4839735385 276.324795905 C 39.7713534158 276.315814279 40.0587332932 276.306409539 40.3461131706 276.296547231 C 40.6334930479 276.286684923 40.9208729253 276.276362301 41.2082528027 276.265542362 C 41.49563268 276.254722423 41.7830125574 276.243402183 42.0703924348 276.231541949 C 42.3577723122 276.219681714 42.6451521895 276.207278244 42.9325320669 276.194289012 C 43.2199119443 276.18129978 43.5072918216 276.167721267 43.794671699 276.153507964 C 44.0820515764 276.139294661 44.3694314537 276.124442755 44.6568113311 276.108903602 C 44.9441912085 276.093364449 45.2315710858 276.07713392 45.5189509632 276.060160084 C 45.8063308406 276.043186248 46.0937107179 276.025464638 46.3810905953 276.006939882 C 46.6684704727 275.988415126 46.9558503501 275.969082398 47.2432302274 275.948882727 C 47.5306101048 275.928683057 47.8179899822 275.907611233 48.1053698595 275.885604536 C 48.3927497369 275.863597839 48.6801296143 275.840650649 48.9675094916 275.816696339 C 49.254889369 275.792742029 49.5422692464 275.767774543 49.8296491237 275.741723197 C 50.1170290011 275.715671852 50.4044088785 275.688530128 50.6917887559 275.660223134 C 50.9791686332 275.631916139 51.2665485106 275.602436865 51.553928388 275.571706064 C 51.8413082653 275.540975263 52.1286881427 275.508985406 52.4160680201 275.475652749 C 52.7034478974 275.442320093 52.9908277748 275.407636558 53.2782076522 275.371513769 C 53.5655875295 275.33539098 53.8529674069 275.297820277 54.1403472843 275.258708524 C 54.4277271617 275.21959677 54.715107039 275.178934693 55.0024869164 275.136624274 C 55.2898667938 275.094313856 55.5772466711 275.050345178 55.8646265485 275.004615232 C 56.1520064259 274.958885285 56.4393863032 274.911383472 56.7267661806 274.862001694 C 57.014146058 274.812619916 57.3015259353 274.761346861 57.5889058127 274.708069256 C 57.8762856901 274.654791651 58.1636655674 274.599497432 58.4510454448 274.542068085 C 58.7384253222 274.484638738 59.0258051996 274.42506141 59.3131850769 274.363212289 C 59.6005649543 274.301363167 59.8879448317 274.237228577 60.175324709 274.17067937 C 60.4627045864 274.104130164 60.7500844638 274.035151805 61.0374643411 273.963609797 C 61.3248442185 273.892067789 61.6122240959 273.817946697 61.8996039732 273.74110668 C 62.1869838506 273.664266663 62.474363728 273.584691351 62.7617436054 273.502235589 C 63.0491234827 273.419779826 63.3365033601 273.334426269 63.6238832375 273.246024503 C 63.9112631148 273.157622737 64.1986429922 273.066154406 64.4860228696 272.971463921 C 64.7734027469 272.876773436 65.0607826243 272.778841391 65.3481625017 272.677507133 C 65.635542379 272.576172874 65.9229222564 272.471415912 66.2103021338 272.363070671 C 66.4976820111 272.25472543 66.7850618885 272.142770297 67.0724417659 272.027034953 C 67.3598216433 271.91129961 67.6472015206 271.791761286 67.934581398 271.668245128 C 68.2219612754 271.544728971 68.5093411527 271.417211019 68.7967210301 271.285512135 C 69.0841009075 271.153813251 69.3714807848 271.017908249 69.6588606622 270.877613991 C 69.9462405396 270.737319734 70.2336204169 270.592609779 70.5210002943 270.443297317 C 70.8083801717 270.293984856 71.0957600491 270.140042159 71.3831399264 269.981279113 C 71.6705198038 269.822516066 71.9578996812 269.658903628 72.2452795585 269.490248788 C 72.5326594359 269.321593947 72.8200393133 269.147866325 73.1074191906 268.968870468 C 73.394799068 268.789874611 73.6821789454 268.605578778 73.9695588227 268.415785574 C 74.2569387001 268.22599237 74.5443185775 268.030668672 74.8316984548 267.829615686 C 75.1190783322 267.628562701 75.4064582096 267.421745907 75.693838087 267.208965704 C 75.9812179643 266.9961855 76.2685978417 266.777405955 76.5559777191 266.552427297 C 76.8433575964 266.32744864 77.1307374738 266.096233515 77.4181173512 265.858582668 C 77.7054972285 265.62093182 77.9928771059 265.376806469 78.2802569833 265.126008602 C 78.5676368606 264.875210734 78.855016738 264.617700145 79.1423966154 264.35328084 C 79.4297764928 264.088861536 79.7171563701 263.817491887 80.0045362475 263.538978746 C 80.2919161249 263.260465604 80.5792960022 262.974765925 80.8666758796 262.681690271 C 81.154055757 262.388614617 81.4414356343 262.088118543 81.7288155117 261.78001723 C 82.0161953891 261.471915917 82.3035752664 261.15616354 82.5909551438 260.832580852 C 82.8783350212 260.508998163 83.1657148985 260.177537981 83.4530947759 259.838027622 C 83.7404746533 259.498517262 84.0278545307 259.150908218 84.315234408 258.795035395 C 84.6026142854 258.439162571 84.8899941628 258.074976174 85.1773740401 257.70231976 C 85.4647539175 257.329663346 85.7521337949 256.948485878 86.0395136722 256.558640656 C 86.3268935496 256.168795434 86.614273427 255.77023023 86.9016533043 255.362809206 C 87.1890331817 254.955388181 87.4764130591 254.539057976 87.7637929365 254.113694756 C 88.0511728138 253.688331535 88.3385526912 253.253880874 88.6259325686 252.810232102 C 88.9133124459 252.36658333 89.2006923233 251.913681028 89.4880722007 251.451428868 C 89.775452078 250.989176707 90.0628319554 250.517518357 90.3502118328 250.036373012 C 90.6375917101 249.555227667 90.9249715875 249.064538174 91.2123514649 248.564240441 C 91.4997313423 248.063942707 91.7871112196 247.553978852 92.074491097 247.034302681 C 92.3618709744 246.514626511 92.6492508517 245.98517952 92.9366307291 245.445934592 C 93.2240106065 244.906689665 93.5113904838 244.357587783 93.7987703612 243.798622071 C 94.0861502386 243.239656359 94.3735301159 242.670767405 94.6609099933 242.091969717 C 94.9482898707 241.51317203 95.235669748 240.924405929 95.5230496254 240.325708419 C 95.8104295028 239.72701091 96.0978093802 239.11832218 96.3851892575 238.49970281 C 96.6725691349 237.88108344 96.9599490123 237.252473626 97.2473288896 236.613958561 C 97.534708767 235.975443497 97.8220886444 235.326963535 98.1094685217 234.668629468 C 98.3968483991 234.010295401 98.6842282765 233.342047894 98.9716081538 232.664024267 C 99.2589880312 231.98600064 99.5463679086 231.298142034 99.833747786 230.60061316 C 100.121127663 229.903084286 100.408507541 229.195826928 100.695887418 228.479033982 C 100.983267295 227.762241036 101.270647173 227.035855103 101.55802705 226.300097974 C 101.845406928 225.564340846 102.132786805 224.819156119 102.420166682 224.064795107 C 102.70754656 223.310434095 102.994926437 222.546841576 103.282306314 221.774298915 C 103.569686192 221.001756254 103.857066069 220.220209598 104.144445946 219.429970794 C 104.431825824 218.63973199 104.719205701 217.840748744 105.006585579 217.033363709 C 105.293965456 216.225978675 105.581345333 215.410141312 105.868725211 214.586225286 C 106.156105088 213.76230926 106.443484965 212.930265984 106.730864843 212.09050022 C 107.01824472 211.250734456 107.305624598 210.403199771 107.593004475 209.548331987 C 107.880384352 208.693464203 108.16776423 207.831219238 108.455144107 206.962063804 C 108.742523984 206.092908369 109.029903862 205.216800937 109.317283739 204.334238803 C 109.604663616 203.45167667 109.892043494 202.562621057 110.179423371 201.667599405 C 110.466803249 200.772577752 110.754183126 199.871554231 111.041563003 198.965085835 C 111.328942881 198.058617439 111.616322758 197.146671485 111.903702635 196.229833789 C 112.191082513 195.312996093 112.47846239 194.39123731 112.765842268 193.4651712 C 113.053222145 192.539105091 113.340602022 191.608705836 113.6279819 190.674614114 C 113.915361777 189.740522392 114.202741654 188.802716094 114.490121532 187.861861641 C 114.777501409 186.921007189 115.064881287 185.977086358 115.352261164 185.030789996 C 115.639641041 184.084493633 115.927020919 183.13580757 116.214400796 182.185445607 C 116.501780673 181.235083645 116.789160551 180.283035833 117.076540428 179.330037319 C 117.363920305 178.377038804 117.651300183 177.423084008 117.93868006 176.468927671 C 118.226059938 175.514771333 118.513439815 174.560412391 118.800819692 173.606623293 C 119.08819957 172.652834194 119.375579447 171.699618524 119.662959324 170.74776442 C 119.950339202 169.795910317 120.237719079 168.845426135 120.525098957 167.897113562 C 120.812478834 166.948800988 121.099858711 166.002673258 121.387238589 165.059543346 C 121.674618466 164.116413433 121.961998343 163.176299551 122.249378221 162.24002359 C 122.536758098 161.303747629 122.824137975 160.371332862 123.111517853 159.443607629 C 123.39889773 158.515882395 123.686277608 157.592875094 123.973657485 156.675417951 C 124.261037362 155.757960807 124.54841724 154.8460874 124.835797117 153.940631196 C 125.123176994 153.035174991 125.410556872 152.136174787 125.697936749 151.244462573 C 125.985316627 150.352750359 126.272696504 149.468370174 126.560076381 148.592149758 C 126.847456259 147.715929343 127.134836136 146.847917982 127.422216013 145.988936343 C 127.709595891 145.129954703 127.996975768 144.280057307 128.284355645 143.440054894 C 128.571735523 142.600052481 128.8591154 141.770004777 129.146495278 140.95070972 C 129.433875155 140.131414664 129.721255032 139.322937138 130.00863491 138.526059397 C 130.296014787 137.729181656 130.583394664 136.943973677 130.870774542 136.171199151 C 131.158154419 135.398424625 131.445534297 134.638158542 131.732914174 133.891143177 C 132.020294051 133.144127812 132.307673929 132.410443066 132.595053806 131.690806978 C 132.882433683 130.971170889 133.169813561 130.265668156 133.457193438 129.574989806 C 133.744573315 128.884311457 134.031953193 128.20854685 134.31933307 127.548357304 C 134.606712948 126.888167757 134.894092825 126.243647137 135.181472702 125.61542442 C 135.46885258 124.987201703 135.756232457 124.375375097 136.043612334 123.780538701 C 136.330992212 123.185702305 136.618372089 122.607958484 136.905751967 122.04786403 C 137.193131844 121.487769575 137.480511721 120.945430809 137.767891599 120.421364907 C 138.055271476 119.897299005 138.342651353 119.391616029 138.630031231 118.904791359 C 138.917411108 118.417966689 139.204790986 117.950113899 139.492170863 117.50166454 C 139.77955074 117.053215181 140.066930618 116.624286093 140.354310495 116.215263121 C 140.641690372 115.806240149 140.92907025 115.417243145 141.216450127 115.048610531 C 141.503830004 114.679977917 141.791209882 114.331832291 142.078589759 114.004463117 C 142.365969637 113.677093944 142.653349514 113.370626286 142.940729391 113.085299301 C 143.228109269 112.799972315 143.515489146 112.535913242 143.802869023 112.293309771 C 144.090248901 112.0507063 144.377628778 111.829687551 144.665008656 111.63038879 C 144.952388533 111.431090029 145.23976841 111.253641952 145.527148288 111.098126644 C 145.814528165 110.942611336 146.101908042 110.809160761 146.38928792 110.697803283 C 146.676667797 110.586445805 146.964047674 110.497314337 147.251427552 110.430383196 C 147.538807429 110.363452055 147.826187307 110.318854784 148.113567184 110.296511539 C 148.400947061 110.274168294 148.688326939 110.274212927 148.975706816 110.296511539 C 149.263086693 110.318810151 149.550466571 110.36349658 149.837846448 110.430383196 C 150.125226326 110.497269812 150.412606203 110.586490115 150.69998608 110.697803283 C 150.987365958 110.809116451 151.274745835 110.942655325 151.562125712 111.098126644 C 151.84950559 111.253597963 152.136885467 111.431133591 152.424265344 111.63038879 C 152.711645222 111.82964399 152.999025099 112.050749331 153.286404977 112.293309771 C 153.573784854 112.53587021 153.861164731 112.800014715 154.148544609 113.085299301 C 154.435924486 113.370583886 154.723304363 113.677135613 155.010684241 114.004463117 C 155.298064118 114.331790622 155.585443996 114.68001876 155.872823873 115.048610531 C 156.16020375 115.417202302 156.447583628 115.806280073 156.734963505 116.215263121 C 157.022343382 116.62424617 157.30972326 117.053254096 157.597103137 117.50166454 C 157.884483014 117.950074983 158.171862892 118.418004512 158.459242769 118.904791359 C 158.746622647 119.391578206 159.034002524 119.897335653 159.321382401 120.421364907 C 159.608762279 120.945394161 159.896142156 121.487804973 160.183522033 122.04786403 C 160.470901911 122.607923086 160.758281788 123.185736381 161.045661666 123.780538701 C 161.333041543 124.375341021 161.62042142 124.987234391 161.907801298 125.61542442 C 162.195181175 126.24361445 162.482561052 126.888198995 162.76994093 127.548357304 C 163.057320807 128.208515613 163.344700685 128.884341189 163.632080562 129.574989806 C 163.919460439 130.265638423 164.206840317 130.971199066 164.494220194 131.690806978 C 164.781600071 132.41041489 165.068979949 133.144154388 165.356359826 133.891143177 C 165.643739703 134.638131966 165.931119581 135.398449562 166.218499458 136.171199151 C 166.505879336 136.943948739 166.793259213 137.729204921 167.08063909 138.526059397 C 167.368018968 139.322913873 167.655398845 140.13143623 167.942778722 140.95070972 C 168.2301586 141.76998321 168.517538477 142.600072328 168.804918355 143.440054894 C 169.092298232 144.280037461 169.379678109 145.129972815 169.667057987 145.988936343 C 169.954437864 146.84789987 170.241817741 147.715945709 170.529197619 148.592149758 C 170.816577496 149.468353808 171.103957373 150.352764977 171.391337251 151.244462573 C 171.678717128 152.136160169 171.966097006 153.035187863 172.253476883 153.940631196 C 172.54085676 154.846074528 172.828236638 155.75797194 173.115616515 156.675417951 C 173.402996392 157.592863961 173.69037627 158.515891803 173.977756147 159.443607629 C 174.265136025 160.371323455 174.552515902 161.303755329 174.839895779 162.24002359 C 175.127275657 163.176291851 175.414655534 164.116419448 175.702035411 165.059543346 C 175.989415289 166.002667244 176.276795166 166.948805346 176.564175043 167.897113562 C 176.851554921 168.845421778 177.138934798 169.79591305 177.426314676 170.74776442 C 177.713694553 171.699615791 178.00107443 172.652835339 178.288454308 173.606623293 C 178.575834185 174.560411246 178.863214062 175.514770931 179.15059394 176.468927671 C 179.437973817 177.42308441 179.725353695 178.3770369 180.012733572 179.330037319 C 180.300113449 180.283037738 180.587493327 181.235080286 180.874873204 182.185445607 C 181.162253081 183.135810929 181.449632959 184.084488871 181.737012836 185.030789996 C 182.024392713 185.97709112 182.311772591 186.921001078 182.599152468 187.861861641 C 182.886532346 188.802722205 183.173912223 189.740514989 183.4612921 190.674614114 C 183.748671978 191.608713239 184.036051855 192.539096454 184.323431732 193.4651712 C 184.61081161 194.391245946 184.898191487 195.312986284 185.185571365 196.229833789 C 185.472951242 197.146681293 185.760331119 198.058606521 186.047710997 198.965085835 C 186.335090874 199.871565149 186.622470751 200.772565789 186.909850629 201.667599405 C 187.197230506 202.562633021 187.484610384 203.451663726 187.771990261 204.334238803 C 188.059370138 205.21681388 188.346750016 206.092894512 188.634129893 206.962063804 C 188.92150977 207.831233096 189.208889648 208.693449497 189.496269525 209.548331987 C 189.783649402 210.403214477 190.07102928 211.25071897 190.358409157 212.09050022 C 190.645789035 212.93028147 190.933168912 213.762293059 191.220548789 214.586225286 C 191.507928667 215.410157513 191.795308544 216.225961826 192.082688421 217.033363709 C 192.370068299 217.840765593 192.657448176 218.639714558 192.944828054 219.429970794 C 193.232207931 220.22022703 193.519587808 221.001738305 193.806967686 221.774298915 C 194.094347563 222.546859525 194.38172744 223.310415692 194.669107318 224.064795107 C 194.956487195 224.819174522 195.243867072 225.564322052 195.53124695 226.300097974 C 195.818626827 227.035873897 196.106006705 227.762221912 196.393386582 228.479033982 C 196.680766459 229.195846052 196.968146337 229.903064892 197.255526214 230.60061316 C 197.542906091 231.298161428 197.830285969 231.985981033 198.117665846 232.664024267 C 198.405045724 233.342067501 198.692425601 234.010275637 198.979805478 234.668629468 C 199.267185356 235.326983299 199.554565233 235.975423631 199.84194511 236.613958561 C 200.129324988 237.252493492 200.416704865 237.881063523 200.704084742 238.49970281 C 200.99146462 239.118342097 201.278844497 239.726990991 201.566224375 240.325708419 C 201.853604252 240.924425847 202.140984129 241.513152156 202.428364007 242.091969717 C 202.715743884 242.670787278 203.003123761 243.239636576 203.290503639 243.798622071 C 203.577883516 244.357607566 203.865263394 244.906670014 204.152643271 245.445934592 C 204.440023148 245.985199171 204.727403026 246.514607031 205.014782903 247.034302681 C 205.30216278 247.553998332 205.589542658 248.063923436 205.876922535 248.564240441 C 206.164302412 249.064557446 206.45168229 249.555208639 206.739062167 250.036373012 C 207.026442045 250.517537385 207.313821922 250.989157953 207.601201799 251.451428868 C 207.888581677 251.913699782 208.175961554 252.366564881 208.463341431 252.810232102 C 208.750721309 253.253899323 209.038101186 253.688313417 209.325481064 254.113694756 C 209.612860941 254.539076094 209.900240818 254.955370418 210.187620696 255.362809206 C 210.475000573 255.770247993 210.76238045 256.168778048 211.049760328 256.558640656 C 211.337140205 256.948503264 211.624520082 257.329646357 211.91189996 257.70231976 C 212.199279837 258.074993163 212.486659715 258.439145995 212.774039592 258.795035395 C 213.061419469 259.150924794 213.348799347 259.498501115 213.636179224 259.838027622 C 213.923559101 260.177554129 214.210938979 260.508982457 214.498318856 260.832580852 C 214.785698734 261.156179246 215.073078611 261.471900662 215.360458488 261.78001723 C 215.647838366 262.088133798 215.935218243 262.388599822 216.22259812 262.681690271 C 216.509977998 262.974780721 216.797357875 263.260451275 217.084737753 263.538978746 C 217.37211763 263.817506216 217.659497507 264.088847678 217.946877385 264.35328084 C 218.234257262 264.617714003 218.521637139 264.87519735 218.809017017 265.126008602 C 219.096396894 265.376819853 219.383776771 265.62091891 219.671156649 265.858582668 C 219.958536526 266.096246425 220.245916404 266.327436204 220.533296281 266.552427297 C 220.820676158 266.777418391 221.108056036 266.996173538 221.395435913 267.208965704 C 221.68281579 267.421757869 221.970195668 267.628551208 222.257575545 267.829615686 C 222.544955423 268.030680165 222.8323353 268.225981342 223.119715177 268.415785574 C 223.407095055 268.605589806 223.694474932 268.789864042 223.981854809 268.968870468 C 224.269234687 269.147876893 224.556614564 269.321583832 224.843994441 269.490248788 C 225.131374319 269.658913743 225.418754196 269.822506396 225.706134074 269.981279113 C 225.993513951 270.140051829 226.280893828 270.293975623 226.568273706 270.443297317 C 226.855653583 270.592619012 227.14303346 270.737310928 227.430413338 270.877613991 C 227.717793215 271.017917054 228.005173093 271.153804863 228.29255297 271.285512135 C 228.579932847 271.417219407 228.867312725 271.544720991 229.154692602 271.668245128 C 229.442072479 271.791769266 229.729452357 271.911292026 230.016832234 272.027034953 C 230.304212111 272.142777881 230.591591989 272.254718231 230.878971866 272.363070671 C 231.166351744 272.471423111 231.453731621 272.576166049 231.741111498 272.677507133 C 232.028491376 272.778848217 232.315871253 272.876766971 232.60325113 272.971463921 C 232.890631008 273.066160871 233.178010885 273.157616621 233.465390763 273.246024503 C 233.75277064 273.334432384 234.040150517 273.419774047 234.327530395 273.502235589 C 234.614910272 273.58469713 234.902290149 273.664261208 235.189670027 273.74110668 C 235.477049904 273.817952152 235.764429781 273.892062645 236.051809659 273.963609797 C 236.339189536 274.035156949 236.626569414 274.104125319 236.913949291 274.17067937 C 237.201329168 274.237233421 237.488709046 274.301358609 237.776088923 274.363212289 C 238.0634688 274.425065968 238.350848678 274.484634454 238.638228555 274.542068085 C 238.925608433 274.599501716 239.21298831 274.654787629 239.500368187 274.708069256 C 239.787748065 274.761350882 240.075127942 274.812616144 240.362507819 274.862001694 C 240.649887697 274.911387244 240.937267574 274.958881751 241.224647452 275.004615232 C 241.512027329 275.050348712 241.799407206 275.094310549 242.086787084 275.136624274 C 242.374166961 275.178938 242.661546838 275.219593678 242.948926716 275.258708524 C 243.236306593 275.29782337 243.52368647 275.335388092 243.811066348 275.371513769 C 244.098446225 275.407639446 244.385826103 275.442317398 244.67320598 275.475652749 C 244.960585857 275.5089881 245.247965735 275.540972751 245.535345612 275.571706064 C 245.822725489 275.602439377 246.110105367 275.631913801 246.397485244 275.660223134 C 246.684865122 275.688532467 246.972244999 275.715669677 247.259624876 275.741723197 C 247.547004754 275.767776718 247.834384631 275.792740008 248.121764508 275.816696339 C 248.409144386 275.84065267 248.696524263 275.863595964 248.98390414 275.885604536 C 249.271284018 275.907613109 249.558663895 275.928681317 249.846043773 275.948882727 C 250.13342365 275.969084137 250.420803527 275.988413515 250.708183405 276.006939882 C 250.995563282 276.02546625 251.282943159 276.043184756 251.570323037 276.060160084 C 251.857702914 276.077135412 252.145082792 276.09336307 252.432462669 276.108903602 C 252.719842546 276.124444134 253.007222424 276.139293387 253.294602301 276.153507964 C 253.581982178 276.167722541 253.869362056 276.181298604 254.156741933 276.194289012 C 254.44412181 276.20727942 254.731501688 276.219680631 255.018881565 276.231541949 C 255.306261443 276.243403266 255.59364132 276.254721425 255.881021197 276.265542362 C 256.168401075 276.276363299 256.455780952 276.286684005 256.743160829 276.296547231 C 257.030540707 276.306410457 257.317920584 276.315813435 257.605300462 276.324795905 C 257.892680339 276.333778375 258.180060216 276.342337792 258.467440094 276.350511059 C 258.754819971 276.358684325 259.042199848 276.366469103 259.329579726 276.373899621 C 259.616959603 276.381330139 259.90433948 276.388404251 260.191719358 276.395153671 C 260.479099235 276.40190309 260.766479113 276.40832585 261.05385899 276.414451301 C 261.341238867 276.420576753 261.628618745 276.426403094 261.915998622 276.431957461 C 262.203378499 276.437511827 262.490758377 276.44279257 262.778138254 276.447824748 C 263.065518132 276.452856927 263.352898009 276.457639035 263.640277886 276.462194189 C 263.927657764 276.466749343 264.215037641 276.471076168 264.502417518 276.475195967 C 264.789797396 276.479315765 265.077177273 276.483227282 265.364557151 276.486950129 C 265.651937028 276.490672975 265.939316905 276.494206006 266.226696783 276.497567256 C 266.51407666 276.500928507 266.801456537 276.504116933 267.088836415 276.507149103 C 267.376216292 276.510181272 267.663596169 276.513056236 267.950976047 276.515789197 C 268.238355924 276.518522157 268.525735802 276.521112252 268.813115679 276.523573418 C 269.100495556 276.526034584 269.387875434 276.528366037 269.675255311 276.53058054 C 269.962635188 276.532795044 270.250015066 276.534891886 270.537394943 276.536882742 C 270.824774821 276.538873599 271.112154698 276.540757825 271.399534575 276.542546091 C 271.686914453 276.544334357 271.97429433 276.54602608 272.261674207 276.547630999 C 272.549054085 276.549235918 272.836433962 276.550753507 273.123813839 276.552192648 C 273.411193717 276.553631789 273.698573594 276.554992006 273.985953472 276.556281392 C 274.273333349 276.557570778 274.560713226 276.558788903 274.848093104 276.559943133 C 275.135472981 276.561097363 275.422852858 276.562187309 275.710232736 276.563219671 C 275.997612613 276.564252032 276.284992491 276.565226457 276.572372368 276.566149032 C 276.859752245 276.567071606 277.147132123 276.567942013 277.434512 276.568765775"
       style="fill:none;fill-opacity:1;stroke:#000000;stroke-width:0.28400001;stroke-miterlimit:4;stroke-dasharray:none;stroke-opacity:1" />
  </g>
</svg>
