<?xml version="1.0" encoding="UTF-8" standalone="no"?>
<!-- Created with Inkscape (http://www.inkscape.org/) -->

<svg
   xmlns:dc="http://purl.org/dc/elements/1.1/"
   xmlns:cc="http://creativecommons.org/ns#"
   xmlns:rdf="http://www.w3.org/1999/02/22-rdf-syntax-ns#"
   xmlns:svg="http://www.w3.org/2000/svg"
   xmlns="http://www.w3.org/2000/svg"
   version="1.1"
   width="100%"
   height="100%"
   viewBox="138.16 64.39 122.98843 111.79281"
   id="svg5341">
  <metadata
     id="metadata5489">
    <rdf:RDF>
      <cc:Work
         rdf:about="">
        <dc:format>image/svg+xml</dc:format>
        <dc:type
           rdf:resource="http://purl.org/dc/dcmitype/StillImage" />
        <dc:title></dc:title>
      </cc:Work>
    </rdf:RDF>
  </metadata>
  <defs
     id="defs5487" />
  <g
     id="g3190">
    <g
       transform="translate(3.5174963,4.4028144)"
       id="g5350">
      <text
         id="text5352"
         xml:space="preserve"
         style="text-anchor:start"><tspan
           x="164.39"
           y="121.95"
           id="tspan5354"
           style="font-size:16px;fill:#000000;font-family:Verdana">C</tspan></text>
    </g>
    <g
       transform="translate(3.5174963,4.4028144)"
       id="g5356">
      <text
         id="text5358"
         xml:space="preserve"
         style="text-anchor:start"><tspan
           x="164.39"
           y="151.95"
           id="tspan5360"
           style="font-size:16px;fill:#000000;font-family:Verdana">C</tspan></text>
    </g>
    <g
       transform="translate(3.5174963,4.4028144)"
       id="g5362">
      <text
         id="text5364"
         xml:space="preserve"
         style="text-anchor:start"><tspan
           x="190.13"
           y="166.7"
           id="tspan5366"
           style="font-size:16px;fill:#000000;font-family:Verdana">N</tspan></text>
    </g>
    <g
       transform="translate(3.5174963,4.4028144)"
       id="g5368">
      <text
         id="text5370"
         xml:space="preserve"
         style="text-anchor:start"><tspan
           x="216.36"
           y="151.95"
           id="tspan5372"
           style="font-size:16px;fill:#000000;font-family:Verdana">C</tspan></text>
    </g>
    <g
       transform="translate(3.5174963,4.4028144)"
       id="g5374">
      <text
         id="text5376"
         xml:space="preserve"
         style="text-anchor:start"><tspan
           x="216.11"
           y="121.7"
           id="tspan5378"
           style="font-size:16px;fill:#000000;font-family:Verdana">N</tspan></text>
    </g>
    <g
       transform="translate(3.5174963,4.4028144)"
       id="g5380">
      <text
         id="text5382"
         xml:space="preserve"
         style="text-anchor:start"><tspan
           x="190.38"
           y="106.95"
           id="tspan5384"
           style="font-size:16px;fill:#000000;font-family:Verdana">C</tspan></text>
    </g>
    <g
       transform="translate(3.5174963,4.4028144)"
       id="Solid">
      <path
         d="m 169.64,124.2 0,0 0.5,0 0.5,0 0,14 -0.5,0 -0.5,0 z"
         id="path5387"
         style="fill:#000000;fill-rule:evenodd;stroke:#000000;stroke-width:0;stroke-linejoin:miter" />
      <line
         style="stroke:#000000;stroke-width:1"
         id="line5389"
         shape-rendering="auto"
         y2="126.9"
         x2="173.74001"
         y1="124.2"
         x1="173.74001" />
      <path
         d="m 173.24,129.85 0,0 0,2.7 1,0 0,-2.7 z"
         id="path5391"
         style="fill:#000000;fill-rule:evenodd;stroke:#000000;stroke-width:0;stroke-linejoin:miter" />
      <line
         style="stroke:#000000;stroke-width:1"
         id="line5393"
         shape-rendering="auto"
         y2="138.2"
         x2="173.74001"
         y1="135.5"
         x1="173.74001" />
    </g>
    <g
       transform="translate(3.5174963,4.4028144)"
       id="g5395">
      <path
         d="m 176.48,150.12 0,0 0.25,-0.44 0.25,-0.43 13.24,7.64 -0.25,0.43 -0.25,0.44 z"
         id="path5397"
         style="fill:#000000;fill-rule:evenodd;stroke:#000000;stroke-width:0;stroke-linejoin:miter" />
      <line
         style="stroke:#000000;stroke-width:1"
         id="line5399"
         shape-rendering="auto"
         y2="148.49001"
         x2="180.53999"
         y1="147.14"
         x1="178.2" />
      <path
         d="m 183.4,150.71 0,0 2.34,1.35 0.5,-0.86 -2.34,-1.35 z"
         id="path5401"
         style="fill:#000000;fill-rule:evenodd;stroke:#000000;stroke-width:0;stroke-linejoin:miter" />
      <line
         style="stroke:#000000;stroke-width:1"
         id="line5403"
         shape-rendering="auto"
         y2="154.77"
         x2="191.44"
         y1="153.42999"
         x1="189.10001" />
    </g>
    <g
       transform="translate(3.5174963,4.4028144)"
       id="g5405">
      <path
         d="m 202.58,157.73 0,0 -0.25,-0.43 -0.25,-0.43 13.24,-7.65 0.25,0.44 0.25,0.43 z"
         id="path5407"
         style="fill:#000000;fill-rule:evenodd;stroke:#000000;stroke-width:0;stroke-linejoin:miter" />
      <line
         style="stroke:#000000;stroke-width:1"
         id="line5409"
         shape-rendering="auto"
         y2="153.37"
         x2="203.17999"
         y1="154.72"
         x1="200.84" />
      <path
         d="m 206.54,152.01 0,0 2.34,-1.35 -0.5,-0.87 -2.34,1.35 z"
         id="path5411"
         style="fill:#000000;fill-rule:evenodd;stroke:#000000;stroke-width:0;stroke-linejoin:miter" />
      <line
         style="stroke:#000000;stroke-width:1"
         id="line5413"
         shape-rendering="auto"
         y2="147.08"
         x2="214.08"
         y1="148.42999"
         x1="211.74001" />
    </g>
    <g
       transform="translate(3.5174963,4.4028144)"
       id="g5415">
      <path
         d="m 222.61,138.2 0,0 -0.5,0 -0.5,0 0,-14.5 0.5,0 0.5,0 z"
         id="path5417"
         style="fill:#000000;fill-rule:evenodd;stroke:#000000;stroke-width:0;stroke-linejoin:miter" />
      <line
         style="stroke:#000000;stroke-width:1"
         id="line5419"
         shape-rendering="auto"
         y2="135.5"
         x2="218.50999"
         y1="138.2"
         x1="218.50999" />
      <path
         d="m 219.01,132.3 0,0 0,-2.7 -1,0 0,2.7 z"
         id="path5421"
         style="fill:#000000;fill-rule:evenodd;stroke:#000000;stroke-width:0;stroke-linejoin:miter" />
      <line
         style="stroke:#000000;stroke-width:1"
         id="line5423"
         shape-rendering="auto"
         y2="123.7"
         x2="218.50999"
         y1="126.4"
         x1="218.50999" />
    </g>
    <g
       transform="translate(3.5174963,4.4028144)"
       id="g5425">
      <path
         d="m 216.22,111.9 0,0 -0.25,0.43 -0.25,0.44 -13.24,-7.65 0.25,-0.43 0.25,-0.43 z"
         id="path5427"
         style="fill:#000000;fill-rule:evenodd;stroke:#000000;stroke-width:0;stroke-linejoin:miter" />
      <line
         style="stroke:#000000;stroke-width:1"
         id="line5429"
         shape-rendering="auto"
         y2="113.57"
         x2="212.14"
         y1="114.92"
         x1="214.48" />
      <path
         d="m 209.28,111.34 0,0 -2.34,-1.35 -0.5,0.87 2.34,1.35 z"
         id="path5431"
         style="fill:#000000;fill-rule:evenodd;stroke:#000000;stroke-width:0;stroke-linejoin:miter" />
      <line
         style="stroke:#000000;stroke-width:1"
         id="line5433"
         shape-rendering="auto"
         y2="107.28"
         x2="201.24001"
         y1="108.63"
         x1="203.58" />
    </g>
    <g
       transform="translate(3.5174963,4.4028144)"
       id="g5435">
      <path
         d="m 189.32,104.23 0,0 0.25,0.44 0.25,0.43 -12.84,7.41 -0.25,-0.43 -0.25,-0.44 z"
         id="path5437"
         style="fill:#000000;fill-rule:evenodd;stroke:#000000;stroke-width:0;stroke-linejoin:miter" />
      <line
         style="stroke:#000000;stroke-width:1"
         id="line5439"
         shape-rendering="auto"
         y2="108.57"
         x2="188.7"
         y1="107.22"
         x1="191.03999" />
      <path
         d="m 185.54,109.81 0,0 -2.34,1.35 0.5,0.87 2.34,-1.35 z"
         id="path5441"
         style="fill:#000000;fill-rule:evenodd;stroke:#000000;stroke-width:0;stroke-linejoin:miter" />
      <line
         style="stroke:#000000;stroke-width:1"
         id="line5443"
         shape-rendering="auto"
         y2="114.63"
         x2="178.2"
         y1="113.28"
         x1="180.53999" />
    </g>
    <g
       transform="translate(3.5174963,4.4028144)"
       id="g5445">
      <text
         id="text5447"
         xml:space="preserve"
         style="text-anchor:start"><tspan
           x="138.16"
           y="166.7"
           id="tspan5449"
           style="font-size:16px;fill:#000000;font-family:Verdana">H</tspan></text>
    </g>
    <g
       transform="translate(3.5174963,4.4028144)"
       id="g5451">
      <path
         d="m 163.52,149.13 0,0 0.25,0.43 0.25,0.43 -13.34,7.7 -0.25,-0.43 -0.25,-0.43 z"
         id="path5453"
         style="fill:#000000;fill-rule:evenodd;stroke:#000000;stroke-width:0;stroke-linejoin:miter" />
    </g>
    <g
       transform="translate(3.5174963,4.4028144)"
       id="g5455">
      <text
         id="text5457"
         xml:space="preserve"
         style="text-anchor:start"><tspan
           x="138.16"
           y="106.7"
           id="tspan5459"
           style="font-size:16px;fill:#000000;font-family:Verdana">H</tspan></text>
    </g>
    <g
       transform="translate(3.5174963,4.4028144)"
       id="g5461">
      <path
         d="m 164.22,111.88 0,0 -0.25,0.43 -0.25,0.44 -13.54,-7.82 0.25,-0.44 0.25,-0.43 z"
         id="path5463"
         style="fill:#000000;fill-rule:evenodd;stroke:#000000;stroke-width:0;stroke-linejoin:miter" />
    </g>
    <g
       transform="translate(3.5174963,4.4028144)"
       id="g5465">
      <text
         id="text5467"
         xml:space="preserve"
         style="text-anchor:start"><tspan
           x="242.09"
           y="166.7"
           id="tspan5469"
           style="font-size:16px;fill:#000000;font-family:Verdana">H</tspan></text>
    </g>
    <g
       transform="translate(3.5174963,4.4028144)"
       id="g5471">
      <path
         d="m 226.19,148.81 0,0 0.25,-0.43 0.25,-0.43 15.53,8.95 -0.25,0.44 -0.25,0.43 z"
         id="path5473"
         style="fill:#000000;fill-rule:evenodd;stroke:#000000;stroke-width:0;stroke-linejoin:miter" />
    </g>
    <g
       transform="translate(3.5174963,4.4028144)"
       id="g5475">
      <text
         id="text5477"
         xml:space="preserve"
         style="text-anchor:start"><tspan
           x="190.13"
           y="76.699997"
           id="tspan5479"
           style="font-size:16px;fill:#000000;font-family:Verdana">H</tspan></text>
    </g>
    <g
       transform="translate(3.5174963,4.4028144)"
       id="g5481">
      <path
         d="m 196.63,93.2 0,0 -0.5,0 -0.5,0 0,-14.5 0.5,0 0.5,0 z"
         id="path5483"
         style="fill:#000000;fill-rule:evenodd;stroke:#000000;stroke-width:0;stroke-linejoin:miter" />
    </g>
  </g>
</svg>
